HIERARCHY
ROOT ui
{
	 OFFSET 0 0 0
	 CHANNELS 3 XPosition YPosition Z Position
	 EndSite
	 {
	 OFFSET 0 -1 0
	 }
}
ROOT li
{
	 OFFSET 0 0 0
	 CHANNELS 3 XPosition YPosition Z Position
	 EndSite
	 {
	 OFFSET 0 -1 0
	 }
}
ROOT ul
{
	 OFFSET 0 0 0
	 CHANNELS 3 XPosition YPosition Z Position
	 EndSite
	 {
	 OFFSET 0 -1 0
	 }
}
ROOT ll
{
	 OFFSET 0 0 0
	 CHANNELS 3 XPosition YPosition Z Position
	 EndSite
	 {
	 OFFSET 0 -1 0
	 }
}
ROOT tt
{
	 OFFSET 0 0 0
	 CHANNELS 3 XPosition YPosition Z Position
	 EndSite
	 {
	 OFFSET 0 -1 0
	 }
}
ROOT tb
{
	 OFFSET 0 0 0
	 CHANNELS 3 XPosition YPosition Z Position
	 EndSite
	 {
	 OFFSET 0 -1 0
	 }
}
ROOT td
{
	 OFFSET 0 0 0
	 CHANNELS 3 XPosition YPosition Z Position
	 EndSite
	 {
	 OFFSET 0 -1 0
	 }
}
ROOT v
{
	 OFFSET 0 0 0
	 CHANNELS 3 XPosition YPosition Z Position
	 EndSite
	 {
	 OFFSET 0 -1 0
	 }
}
ROOT bn
{
	 OFFSET 0 0 0
	 CHANNELS 3 XPosition YPosition Z Position
	 EndSite
	 {
	 OFFSET 0 -1 0
	 }
}
MOTION
Frames: 21
Frame Time: 0.002
0.0020324749946594237	-2.9270198941230775E-4	0		0.4992175903320312	-2.412643310546875	0		-1.0757083740234374	-0.026892375946044923	0		-0.8857606811523437	-2.448142578125	0		1.2555615234375	-0.7413358764648438	0		2.988423095703125	0.09041092681884766	0		4.52591455078125	0.0998758773803711	0		5.64396533203125	0.1416779327392578	0		-0.12549787902832032	5.9154072265625	0		
0.0026662960052490233	-3.398039937019348E-4	0		0.4371480407714844	-2.39744091796875	0		-1.086853759765625	-0.015706093788146972	0		-0.849187255859375	-2.45190625	0		1.256197265625	-0.7413797607421875	0		2.998776611328125	0.07617562866210938	0		4.5265478515625	0.09984033966064453	0		5.6256025390625	0.14202256774902344	0		-0.11162358093261719	5.92809912109375	0		
0.0032554500102996826	-3.814060091972351E-4	0		0.4475775146484375	-2.40567919921875	0		-1.07040673828125	-0.0230645809173584	0		-0.877087890625	-2.476387451171875	0		1.2388697509765625	-0.7370640869140626	0		2.994505859375	0.08323340606689453	0		4.53195751953125	0.09070343017578125	0		5.630349609375	0.1499027099609375	0		-0.110057373046875	5.92703759765625	0		
-0.07013449096679687	0.005053966999053955	0		0.4532064514160156	-2.399814208984375	0		-1.0617532958984375	-0.016256025314331055	0		-0.834506103515625	-2.47325390625	0		1.2654981689453124	-0.731617919921875	0		3.013700439453125	0.06681912994384766	0		4.52561376953125	0.09779763793945312	0		5.63086572265625	0.1498568572998047	0		-0.22678335571289063	5.9153310546875	0		
0.007248659133911133	0.002501702070236206	0		0.47852755737304686	-2.404335693359375	0		-1.0672347412109375	-0.01115536117553711	0		-0.846979248046875	-2.467015625	0		1.2659124755859374	-0.731647705078125	0		2.99777783203125	0.10011125946044921	0		4.5370302734375	0.09753203582763671	0		5.63128466796875	0.149803955078125	0		-0.09388317108154297	5.936681640625	0		
-0.07247257995605469	0.002080849885940552	0		0.47471124267578124	-2.4092705078125	0		-1.0750697021484374	-0.01799706268310547	0		-0.8083870239257812	-2.45177783203125	0		1.26107080078125	-0.73856884765625	0		2.984607177734375	0.07633777618408204	0		4.52837548828125	0.09966085052490234	0		5.6274306640625	0.14182608032226562	0		-0.10872586059570312	5.9269716796875	0		
0.004669992923736572	-4.474799931049347E-4	0		0.47486080932617186	-2.409274169921875	0		-1.0807916259765624	-0.012864338874816894	0		-0.8811439819335938	-2.446315673828125	0		1.2581807861328125	-0.741521484375	0		2.995922607421875	0.0830846939086914	0		4.52855419921875	0.09960989379882812	0		5.62345166015625	0.1338434295654297	0		-0.12369485473632813	5.916275390625	0		
-0.07224347686767578	0.002100024938583374	0		0.47487640380859375	-2.409265625	0		-1.0689417724609376	-0.023069709777832032	0		-0.8397939453125	-2.480116455078125	0		1.2612802734375	-0.7385850830078124	0		3.0008349609375	0.07595745086669922	0		4.53342724609375	0.09046027374267578	0		5.6235048828125	0.1337752685546875	0		-0.10833961486816407	5.92699169921875	0		
0.007712808132171631	0.002536602020263672	0		0.4519090881347656	-2.401788330078125	0		-1.0608720703125	-0.016181930541992188	0		-0.8446067504882813	-2.4649755859375	0		1.266337646484375	-0.7316796875	0		3.0011669921875	0.09592840576171875	0		4.53336083984375	0.09040747833251953	0		5.62759814453125	0.14162149047851563	0		-0.22553587341308592	5.91635595703125	0		
0.00754022216796875	0.002579268932342529	0		0.47658108520507814	-2.407252685546875	0		-1.0651240234375	-0.020036155700683594	0		-0.8207763671875	-2.46239404296875	0		1.2661495361328126	-0.73166357421875	0		2.99355908203125	0.07405184936523437	0		4.5373291015625	0.09727348327636719	0		5.6274287109375	0.14154554748535156	0		-0.10736783599853515	5.92604833984375	0		
0.004220812797546387	-3.0462399125099184E-4	0		0.4742247009277344	-2.409167724609375	0		-1.071263671875	-0.013836687088012695	0		-0.877703857421875	-2.442184814453125	0		1.2607333984375	-0.738536376953125	0		3.030552734375	0.08629589080810547	0		4.53293212890625	0.0903036651611328	0		5.6230126953125	0.13355024719238281	0		-0.10748844146728516	5.9261064453125	0		
0.0038900890350341798	-2.370550036430359E-4	0		0.47383319091796877	-2.409112060546875	0		-1.073854248046875	-0.026699409484863282	0		-0.8482821044921875	-2.45169287109375	0		1.25732470703125	-0.74143994140625	0		3.004109619140625	0.08080802154541016	0		4.53260400390625	0.0902569808959961	0		5.622685546875	0.13347607421875	0		-0.10864945983886719	5.92719677734375	0		
0.0035045340061187744	-1.5884099900722502E-4	0		0.44744985961914063	-2.4055263671875	0		-1.1451260986328125	-0.020172916412353515	0		-0.8480322265625	-2.466609375	0		1.2651182861328125	-0.731556640625	0		2.994767822265625	0.08298744201660156	0		4.532220703125	0.09021665191650391	0		5.61232568359375	0.13460716247558593	0		-0.10790007781982422	5.92625830078125	0		
0.011037025451660156	-0.002231106996536255	0		0.4878518371582031	-2.41127099609375	0		-1.062448974609375	-0.015719459533691405	0		-0.8356463012695312	-2.472758544921875	0		1.2267808837890626	-0.7257418823242188	0		3.006001220703125	0.06575873565673829	0		4.52977734375	0.08922456359863282	0		5.61704248046875	0.14144453430175782	0		-0.10818885040283203	5.92534912109375	0		
0.005685379981994629	0.0029640650749206544	0		0.4407060546875	-2.392248291015625	0		-1.066981689453125	-0.01951426315307617	0		-0.8470016479492187	-2.464421142578125	0		1.2642008056640626	-0.7314396362304687	0		3.021189208984375	0.09746820831298827	0		4.53960595703125	0.10299785614013672	0		5.606615234375	0.14259317016601564	0		-0.09328801727294922	5.93514501953125	0		
0.0021571640968322753	1.2827099859714507E-4	0		0.4718476867675781	-2.4087958984375	0		-1.0715103759765625	-0.022302261352539064	0		-0.8800851440429688	-2.44163720703125	0		1.243737548828125	-0.7299671020507813	0		2.97527001953125	0.07540251159667968	0		4.52606201171875	0.09924610900878907	0		5.61098876953125	0.13445298767089844	0		-0.12399917602539062	5.915857421875	0		
0.00658118200302124	-0.004861669063568115	0		0.44537857055664065	-2.405175537109375	0		-1.081963134765625	-0.0209647274017334	0		-0.8172573852539062	-2.473786865234375	0		1.2959725341796875	-0.7439522705078125	0		2.99781298828125	0.07597471618652343	0		4.530408203125	0.09014360809326172	0		5.60151953125	0.13460313415527345	0		-0.12432530212402344	5.91597021484375	0		
0.0012114059925079346	3.5283100605010986E-4	0		0.4707835388183594	-2.408594482421875	0		-1.0683975830078125	-0.01910611343383789	0		-0.8865930786132813	-2.46326416015625	0		1.2217802734375	-0.7283807983398437	0		3.00630126953125	0.07383658599853515	0		4.52993896484375	0.09014944458007812	0		5.60105126953125	0.13458317565917968	0		-0.1094356689453125	5.9267841796875	0		
0.0038106811046600343	0.0034112720489501954	0		0.44741357421875	-2.401023193359375	0		-1.06477880859375	-0.01504353427886963	0		-0.8131856689453125	-2.46761572265625	0		1.2622542724609376	-0.7311156005859375	0		3.002145751953125	0.08896488952636719	0		4.53362060546875	0.09708313751220703	0		5.60059375	0.1345744171142578	0		-0.10976048278808594	5.92690625	0		
0.008265792846679687	-0.0015650969743728638	0		0.471812744140625	-2.406412841796875	0		-1.069302001953125	-0.018815366744995118	0		-0.849614013671875	-2.46374853515625	0		1.2418197021484374	-0.7296156616210937	0		2.989404296875	0.07426905822753906	0		4.5331796875	0.09710896301269531	0		5.60915185546875	0.13439552307128907	0		-0.11007562255859375	5.9270322265625	0		
-1.1178699880838395E-4	7.229300141334534E-4	0		0.46048837280273436	-2.39907470703125	0		-0.999817138671875	-0.02408060073852539	0		-0.8117676391601563	-2.448375732421875	0		1.297192138671875	-0.7396434936523437	0		3.0262412109375	0.0865854721069336	0		4.53276220703125	0.09714462280273438	0		5.60873486328125	0.13440953063964844	0		-0.11037587738037109	5.9271611328125	0		
